# xmcd
#
# Track frame offsets:
#       150
#       13506
#       24344
#       40844
#       58914
#       74143
#       86653
#       110641
#       123739
#       131989
#       146491
#       158841
#       179861
#       196917
#
# Disc length: 2827 seconds
#
# Revision: 0
# Processed by: cddbd v1.5.2PL0 Copyright (c) Steve Scherf et al.
# Submitted via: WaveLab 6.01
#
DISCID=d70b090e
DTITLE=Melody 4 - Just as I am
DYEAR=1997
DGENRE=Gospel
TTITLE0=01 There is a mountain
TTITLE1=02 I feel good
TTITLE2=03 Just as I am
TTITLE3=04 Yes I know
TTITLE4=05 Swing down Chariot
TTITLE5=06 I'm growing up in the Lord
TTITLE6=07 Day star
TTITLE7=08 Passing the faith
TTITLE8=09 Blye versekering
TTITLE9=10 Wat 'n vriend het ons in Jesus
TTITLE10=11 Only a boy named David
TTITLE11=12 Sweet Beulah land
TTITLE12=13 Dit is wel met my siel
TTITLE13=14 I'm free
EXTD=
EXTT0=
EXTT1=
EXTT2=
EXTT3=
EXTT4=
EXTT5=
EXTT6=
EXTT7=
EXTT8=
EXTT9=
EXTT10=
EXTT11=
EXTT12=
EXTT13=
PLAYORDER=
